<?xml version="1.0" encoding="iso-8859-1"?>
<!-- Generator: Adobe Illustrator 19.0.0, SVG Export Plug-In . SVG Version: 6.00 Build 0)  -->
<svg version="1.1" id="Layer_1" xmlns="http://www.w3.org/2000/svg" xmlns:xlink="http://www.w3.org/1999/xlink" x="0px" y="0px"
	 viewBox="0 0 512 512" style="enable-background:new 0 0 512 512;" xml:space="preserve">
<g transform="translate(-1)">
	<path style="fill:#48A0DC;" d="M142.279,88.276V35.31h17.655V0H54.003v35.31h17.655v114.759l-49.364,42.805
		c-7.477,6.63-2.781,18.988,7.212,18.988h42.152V476.69H54.003V512h405.998l0.071-35.31h-17.655V211.862h42.214
		c9.869,0,14.504-12.209,7.124-18.759L288.684,12.959c-17.752-17.09-45.833-17.09-63.576,0L142.279,88.276z"/>
	<g>
		<path style="fill:#FFFFFF;" d="M283.515,344.276c-3.302,0-6.382-1.854-7.892-4.882l-18.591-37.173l-18.582,37.173
			c-1.721,3.452-5.491,5.376-9.313,4.767c-3.805-0.618-6.78-3.646-7.318-7.459l-8.828-61.793c-0.689-4.829,2.666-9.304,7.486-9.993
			c4.829-0.644,9.295,2.666,9.984,7.486l4.838,33.818l13.842-27.683c2.993-5.985,12.8-5.985,15.793,0l13.842,27.683l4.838-33.818
			c0.68-4.82,5.146-8.157,9.984-7.486c4.82,0.689,8.174,5.164,7.486,9.993l-8.828,61.793c-0.538,3.814-3.513,6.841-7.318,7.459
			C284.46,344.241,283.983,344.276,283.515,344.276"/>
		<path style="fill:#FFFFFF;" d="M389.447,344.276c-3.302,0-6.382-1.854-7.892-4.882l-18.591-37.173l-18.582,37.173
			c-1.73,3.452-5.5,5.376-9.313,4.767c-3.805-0.618-6.78-3.646-7.318-7.459l-8.828-61.793c-0.689-4.829,2.666-9.304,7.486-9.993
			c4.873-0.644,9.295,2.666,9.984,7.486l4.837,33.818l13.842-27.683c2.993-5.985,12.8-5.985,15.793,0l13.842,27.683l4.838-33.818
			c0.68-4.82,5.138-8.157,9.984-7.486c4.82,0.689,8.183,5.164,7.486,9.993l-8.828,61.793c-0.538,3.814-3.513,6.841-7.318,7.459
			C390.391,344.241,389.914,344.276,389.447,344.276"/>
		<path style="fill:#FFFFFF;" d="M177.584,344.276c-3.302,0-6.382-1.854-7.892-4.882l-18.591-37.173l-18.582,37.173
			c-1.73,3.452-5.508,5.376-9.313,4.767c-3.805-0.618-6.78-3.646-7.318-7.459l-8.828-61.793c-0.689-4.829,2.666-9.304,7.486-9.993
			c4.838-0.644,9.304,2.666,9.984,7.486l4.838,33.818l13.842-27.683c2.993-5.985,12.8-5.985,15.793,0l13.842,27.683l4.838-33.818
			c0.689-4.82,5.155-8.157,9.984-7.486c4.82,0.689,8.174,5.164,7.486,9.993l-8.828,61.793c-0.538,3.814-3.513,6.841-7.318,7.459
			C178.529,344.241,178.052,344.276,177.584,344.276"/>
	</g>
</g>
<g>
</g>
<g>
</g>
<g>
</g>
<g>
</g>
<g>
</g>
<g>
</g>
<g>
</g>
<g>
</g>
<g>
</g>
<g>
</g>
<g>
</g>
<g>
</g>
<g>
</g>
<g>
</g>
<g>
</g>
</svg>
